<?xml version="1.0" standalone="no"?>
<!DOCTYPE svg PUBLIC "-//W3C//DTD SVG 20010904//EN"
 "http://www.w3.org/TR/2001/REC-SVG-20010904/DTD/svg10.dtd">
<svg version="1.0" xmlns="http://www.w3.org/2000/svg"
 width="738.000000pt" height="738.000000pt" viewBox="0 0 738.000000 738.000000"
 preserveAspectRatio="xMidYMid meet">
<metadata>
Created by potrace 1.14, written by Peter Selinger 2001-2017
</metadata>
<g transform="translate(0.000000,738.000000) scale(0.100000,-0.100000)"
fill="#000000" stroke="none">
<path d="M3498 6043 c-47 -54 -52 -142 -13 -219 31 -60 31 -76 1 -139 -33 -71
-94 -144 -176 -211 -40 -33 -86 -71 -103 -86 -18 -15 -34 -25 -36 -22 -2 2 -4
23 -4 46 l1 43 -9 -35 c-4 -19 -6 -42 -3 -51 2 -9 -2 -23 -10 -30 -71 -67
-196 -195 -196 -201 0 -4 -5 -8 -11 -8 -6 0 -8 8 -4 20 3 10 8 49 10 85 2 37
8 72 13 78 46 58 57 168 22 225 -54 89 -150 54 -150 -55 0 -46 39 -133 80
-180 34 -38 34 -40 16 -139 -8 -47 -22 -85 -43 -115 -29 -42 -96 -168 -105
-199 -3 -8 -8 5 -12 30 -3 25 -20 71 -36 103 -28 56 -29 59 -13 100 8 23 16
71 17 105 1 58 -1 66 -27 88 -70 60 -204 1 -183 -80 8 -31 109 -142 148 -162
20 -10 38 -34 56 -72 23 -50 25 -68 23 -147 -8 -247 -6 -320 12 -379 10 -32
20 -56 22 -54 2 2 -3 26 -11 53 -9 28 -18 95 -21 150 -4 86 -1 114 21 199 14
54 32 109 40 121 18 27 76 56 128 63 34 4 43 1 72 -27 55 -53 138 -66 213 -32
23 11 49 31 58 45 15 22 16 31 5 57 -8 18 -27 37 -46 47 -29 13 -41 14 -89 3
-30 -7 -77 -27 -104 -45 -33 -23 -65 -35 -98 -38 -27 -3 -64 -12 -83 -21 -18
-10 -35 -15 -37 -13 -7 7 117 182 170 239 50 53 56 57 99 57 59 0 95 -14 133
-50 43 -42 112 -70 171 -70 47 0 55 3 83 35 37 42 41 90 11 128 -41 52 -84 45
-228 -37 -41 -23 -45 -24 -84 -10 -22 8 -59 14 -82 14 l-41 1 35 30 c19 17 48
43 64 58 50 46 80 61 121 62 22 1 54 5 70 9 19 6 6 6 -35 3 l-65 -5 89 83 c95
89 161 180 172 234 3 20 17 41 35 54 72 53 101 201 50 255 -29 31 -80 35 -103
9z"/>
<path d="M4327 5989 c-62 -41 -142 -133 -212 -244 -58 -91 -178 -331 -230
-460 -16 -38 -35 -75 -42 -81 -8 -7 -49 -20 -91 -29 -280 -63 -312 -80 -405
-220 -33 -49 -93 -125 -134 -168 -127 -134 -170 -221 -183 -376 -5 -51 -5
-130 0 -175 4 -44 7 -82 5 -84 -7 -7 -106 50 -141 80 -20 17 -49 56 -66 85
-16 29 -31 53 -33 53 -11 0 12 -44 47 -90 22 -29 34 -50 26 -47 -208 88 -286
105 -360 74 -77 -32 -145 -173 -169 -352 -11 -87 -9 -293 7 -610 l7 -120 -89
-75 c-190 -161 -270 -210 -344 -210 -29 0 -52 -6 -60 -14 -22 -27 59 -40 230
-38 149 3 159 2 247 -28 51 -16 101 -30 113 -30 11 0 34 13 52 29 l33 29 -3
130 c-4 166 7 228 74 434 68 209 84 277 84 352 l0 59 128 -124 c243 -237 413
-340 636 -389 40 -9 66 -26 150 -101 169 -151 353 -264 517 -318 55 -18 72
-29 92 -59 47 -71 74 -90 180 -122 78 -25 112 -30 151 -26 28 3 96 9 151 15
132 12 179 25 242 67 70 48 97 86 144 205 47 118 75 234 125 519 20 113 53
282 75 375 36 161 44 180 128 350 49 99 96 200 104 225 17 51 33 255 23 294
-7 30 -31 34 -58 9 -20 -18 -19 -22 -23 62 -1 24 -12 58 -29 84 -30 48 -117
221 -133 267 -21 57 -74 114 -200 215 -249 201 -399 332 -497 436 -106 112
-179 173 -206 173 -9 0 -38 -14 -63 -31z m208 -101 c66 -68 150 -161 186 -208
101 -132 338 -475 354 -514 16 -38 18 -96 7 -161 l-8 -40 -13 60 c-15 68 -43
139 -60 149 -6 4 -2 -10 9 -31 23 -44 64 -197 57 -216 -2 -6 -11 2 -20 18 -8
17 -38 58 -66 93 -28 35 -51 68 -51 73 0 6 -49 61 -108 122 -59 62 -161 173
-225 248 -64 75 -137 155 -163 179 -41 37 -50 42 -81 37 -113 -19 -296 -189
-382 -356 -44 -86 -86 -140 -98 -127 -6 6 116 277 173 386 69 130 134 227 199
299 52 56 127 111 154 111 8 0 69 -55 136 -122z m-52 -299 c54 -56 96 -106 95
-110 -2 -5 -43 -39 -93 -77 -108 -81 -125 -110 -201 -329 -30 -84 -61 -165
-71 -179 -9 -14 -48 -48 -86 -75 -82 -57 -80 -64 4 -13 76 46 100 79 139 190
l31 90 67 16 c37 9 68 15 70 14 1 -2 -14 -27 -34 -57 -31 -46 -35 -59 -31 -99
2 -25 8 -55 12 -67 7 -21 4 -23 -29 -23 -53 0 -72 -12 -161 -105 -65 -67 -89
-86 -125 -95 -114 -30 -218 -116 -350 -290 -79 -104 -103 -153 -108 -220 -4
-56 -4 -57 38 -93 24 -20 75 -49 114 -64 124 -48 168 -84 245 -202 78 -119 95
-160 95 -231 1 -36 -6 -104 -14 -153 -17 -107 -8 -149 53 -252 38 -64 42 -77
45 -152 5 -97 6 -96 -90 -59 -380 142 -752 506 -977 955 -51 101 -82 260 -82
426 0 189 40 288 173 430 47 50 110 129 140 176 81 126 132 158 308 199 135
31 245 68 263 88 8 9 31 51 51 93 48 98 133 204 221 274 60 47 145 92 180 95
6 0 54 -45 108 -101z m367 6 c52 -45 149 -125 216 -177 66 -53 135 -113 153
-134 19 -21 60 -92 91 -158 31 -67 73 -148 94 -181 20 -33 36 -67 36 -75 0 -8
-19 20 -42 63 -22 43 -43 76 -45 73 -2 -2 16 -45 41 -95 25 -50 46 -96 46
-103 -1 -7 -8 1 -16 17 -39 74 -96 166 -101 161 -3 -2 11 -31 30 -63 19 -32
43 -74 53 -93 21 -41 27 -110 10 -110 -13 0 -109 97 -180 183 -71 85 -86 79
-102 -41 -17 -133 -46 -16 -37 154 7 143 3 154 -95 293 -38 53 -114 160 -170
239 -56 79 -96 140 -90 136 7 -4 56 -44 108 -89z m-189 -207 c35 -40 104 -116
153 -168 50 -52 120 -137 156 -188 36 -51 75 -105 87 -121 13 -16 28 -52 34
-80 6 -31 16 -51 24 -51 16 0 20 12 36 103 6 37 15 67 20 67 4 0 40 -38 79
-85 38 -46 92 -103 119 -126 l49 -43 -24 -48 c-51 -101 -113 -150 -243 -192
-53 -17 -69 -27 -85 -55 -18 -31 -18 -38 -5 -110 23 -128 17 -193 -26 -301
-41 -104 -114 -253 -180 -370 -23 -41 -55 -108 -71 -149 l-29 -73 -13 33 c-25
61 -18 154 18 254 70 194 75 261 30 402 -16 51 -30 108 -30 127 0 19 19 80 41
137 l41 102 -7 151 c-5 111 -12 167 -27 211 -18 53 -23 108 -15 170 1 13 -8
25 -28 35 -16 9 -53 38 -81 66 -82 82 -169 111 -204 69 -13 -15 -156 -52 -166
-43 -3 4 13 50 36 103 34 77 52 104 89 135 78 66 135 108 147 109 7 1 40 -32
75 -71z m-42 -262 c51 -34 62 -46 55 -58 -3 -4 2 -8 10 -8 8 0 19 -6 23 -14 4
-7 22 -21 40 -30 31 -16 32 -17 30 -84 -1 -45 4 -80 15 -107 18 -42 39 -233
27 -241 -4 -2 -10 0 -13 5 -3 5 -23 12 -43 16 -58 10 -81 30 -114 101 -25 53
-38 69 -65 80 -42 18 -64 8 -93 -41 -12 -21 -28 -35 -40 -35 -21 0 -71 47 -71
67 0 6 -3 18 -6 27 -3 9 4 25 19 38 l25 23 -19 35 c-34 65 -22 109 58 208 57
70 81 73 162 18z m-255 -291 c-14 -57 36 -135 87 -135 23 0 34 8 54 40 43 67
95 49 136 -48 29 -67 54 -90 107 -98 24 -4 54 -16 65 -27 30 -30 19 -121 -27
-221 -45 -97 -47 -152 -10 -256 14 -41 28 -104 31 -140 5 -61 2 -78 -43 -206
-58 -166 -62 -233 -25 -354 34 -109 32 -150 -13 -249 -37 -80 -38 -87 -30
-150 16 -129 13 -138 -58 -203 -62 -58 -64 -59 -113 -54 -27 2 -90 16 -140 30
-75 22 -95 32 -123 63 -53 60 -65 90 -59 149 7 73 -6 124 -58 211 -56 96 -62
137 -40 259 24 136 18 177 -46 298 -49 94 -53 106 -54 171 0 57 6 86 34 155
45 114 50 182 20 290 -48 178 -35 266 47 310 27 14 69 51 97 85 56 67 76 83
115 95 47 14 53 12 46 -15z m1162 -71 c10 -40 -5 -213 -23 -274 -10 -30 -55
-129 -101 -220 -75 -148 -88 -181 -122 -320 -44 -178 -69 -302 -105 -520 -31
-187 -61 -302 -114 -435 -33 -82 -48 -108 -88 -144 -26 -24 -66 -52 -89 -62
-66 -30 -264 -52 -264 -30 0 5 16 18 35 30 57 33 70 78 55 178 l-13 82 41 90
c43 92 49 129 32 192 -14 48 21 148 99 288 130 231 221 454 221 542 0 22 -7
74 -16 115 -23 114 -8 143 92 174 130 40 176 77 244 200 49 86 87 140 100 140
5 0 13 -12 16 -26z m-1492 -141 c-19 -44 -16 -160 6 -239 34 -120 31 -201 -9
-299 -22 -54 -34 -103 -38 -151 l-5 -70 -52 51 c-40 40 -73 60 -155 95 -127
54 -161 83 -161 137 0 73 87 212 230 366 81 88 208 163 184 110z m-1355 -329
c94 -28 348 -150 360 -173 5 -9 12 -40 16 -69 16 -123 222 -461 390 -643 20
-22 34 -43 31 -46 -12 -13 -147 31 -242 78 -149 74 -285 182 -474 375 -91 93
-196 198 -235 234 -45 41 -31 24 37 -46 65 -67 109 -121 114 -139 15 -58 -13
-204 -71 -371 -71 -207 -85 -281 -85 -458 0 -129 -2 -144 -20 -164 -28 -30
-75 -28 -169 4 -70 24 -85 26 -206 22 -71 -3 -157 0 -190 5 l-60 10 62 13 c34
7 81 24 105 38 38 22 187 138 287 223 l35 30 -13 309 c-15 393 -3 514 64 657
55 116 135 150 264 111z"/>
<path d="M5315 4893 c32 -51 98 -134 102 -129 3 2 -21 38 -52 80 -57 76 -83
101 -50 49z"/>
<path d="M3158 5818 c-35 -12 -62 -69 -54 -113 4 -18 19 -50 35 -72 16 -22 36
-54 45 -71 15 -29 15 -35 1 -63 -9 -17 -14 -33 -12 -35 2 -3 10 9 17 26 7 16
16 30 20 30 16 0 90 162 90 199 0 68 -76 121 -142 99z"/>
<path d="M3636 5640 c-19 -22 -49 -66 -65 -98 -17 -33 -38 -63 -48 -67 -10 -4
-45 -18 -78 -31 -33 -13 -54 -23 -47 -23 8 -1 43 11 79 25 62 25 70 26 137 15
46 -7 85 -8 111 -2 70 17 124 107 95 160 -17 32 -70 61 -111 61 -30 0 -43 -7
-73 -40z"/>
<path d="M1530 2272 c-19 -9 -37 -17 -39 -19 -2 -1 4 -9 13 -18 14 -14 16 -49
16 -262 0 -215 -2 -249 -17 -265 -15 -17 -13 -18 47 -18 60 0 62 1 47 18 -14
15 -17 42 -17 150 l0 131 30 21 c39 28 103 37 135 20 39 -21 50 -64 50 -191 0
-84 -4 -121 -14 -132 -12 -16 -8 -17 42 -17 l56 0 -15 28 c-10 19 -14 62 -14
147 0 101 -3 125 -20 152 -35 58 -130 62 -212 7 l-38 -24 0 145 c0 80 -3 145
-7 144 -5 0 -24 -8 -43 -17z"/>
<path d="M1070 2170 l0 -40 28 31 c23 26 38 33 80 37 l52 5 0 -238 c0 -208 -2
-241 -17 -257 -15 -17 -14 -18 46 -18 l62 0 -15 22 c-13 19 -16 61 -16 256 l0
235 52 -5 c42 -4 57 -11 80 -37 l28 -31 0 40 0 40 -190 0 -190 0 0 -40z"/>
<path d="M2645 2186 c-95 -45 -146 -129 -146 -241 0 -157 100 -256 260 -257
71 -1 124 16 178 58 32 24 33 27 33 100 l0 74 -47 0 c-44 0 -46 -1 -29 -19 13
-15 16 -34 14 -87 -3 -65 -5 -69 -37 -91 -43 -29 -117 -31 -170 -4 -176 90
-199 399 -34 467 83 35 193 1 246 -76 l17 -24 0 46 c0 46 0 46 -47 62 -71 24
-177 21 -238 -8z"/>
<path d="M4727 2177 c16 -19 57 -83 91 -144 l62 -111 0 -89 c0 -57 -5 -98 -14
-115 l-15 -28 61 0 c59 0 60 1 45 18 -14 15 -17 40 -17 120 l0 102 61 108 c33
59 75 122 92 140 l31 32 -42 0 c-38 0 -41 -2 -31 -18 9 -14 7 -27 -11 -63 -49
-97 -102 -181 -110 -172 -5 4 -35 57 -69 118 -45 82 -57 112 -49 122 8 10 -2
13 -52 13 l-62 0 29 -33z"/>
<path d="M5865 2104 c-16 -8 -38 -22 -47 -31 -11 -10 -26 -13 -43 -9 -14 4
-25 2 -25 -4 0 -5 6 -10 14 -10 21 0 64 -56 76 -99 19 -72 -17 -141 -74 -141
-51 0 -105 77 -106 151 0 40 31 89 58 90 9 0 12 3 5 5 -20 9 -73 -25 -93 -59
-31 -50 -26 -109 11 -152 17 -19 26 -35 20 -35 -6 0 -18 -11 -27 -25 -20 -31
-12 -71 17 -80 20 -7 19 -9 -16 -38 -99 -81 -66 -177 61 -177 70 0 135 24 188
71 68 60 84 134 34 160 -12 6 -66 15 -122 19 -121 10 -138 16 -134 44 3 19 8
21 63 18 48 -2 68 2 99 20 84 49 98 148 29 208 -19 17 -32 34 -28 38 4 4 32 7
63 7 50 0 57 2 57 20 0 26 -40 31 -80 9z m33 -433 c47 -25 13 -98 -62 -132
-25 -11 -64 -19 -99 -19 -52 0 -62 3 -89 30 -25 26 -29 36 -24 62 3 18 16 43
29 56 21 23 27 24 122 20 55 -3 110 -10 123 -17z"/>
<path d="M2085 2060 c-28 -7 -28 -8 11 -9 50 -1 88 -29 105 -76 11 -29 18 -35
41 -35 34 0 36 16 5 61 -34 50 -99 74 -162 59z"/>
<path d="M3220 2060 c-20 -5 -49 -24 -67 -44 l-33 -36 0 40 c0 44 -5 47 -56
25 -33 -13 -34 -16 -20 -31 24 -23 23 -279 -1 -306 -15 -17 -13 -18 47 -18 60
0 62 1 47 18 -26 28 -24 235 1 277 18 29 22 30 88 30 64 0 69 2 72 23 2 12 -1
22 -6 22 -6 0 -16 2 -24 4 -7 2 -29 0 -48 -4z"/>
<path d="M3505 2060 c-28 -7 -28 -8 11 -9 50 -1 88 -29 105 -76 11 -29 18 -35
41 -35 34 0 36 16 5 61 -34 50 -99 74 -162 59z"/>
<path d="M3905 2060 c-28 -7 -27 -8 12 -9 32 -1 48 -8 72 -32 17 -17 34 -41
37 -55 5 -19 13 -24 36 -24 26 0 29 3 23 23 -23 74 -100 116 -180 97z"/>
<path d="M4345 2058 c-59 -13 -63 -26 -8 -21 88 7 112 -36 113 -202 0 -59 -5
-99 -14 -117 l-15 -28 54 0 54 0 -15 28 c-10 19 -14 62 -14 144 0 64 -4 128
-10 142 -18 47 -78 70 -145 54z"/>
<path d="M5315 2063 c-11 -2 -30 -6 -42 -9 -30 -6 -90 -60 -110 -98 -21 -40
-21 -132 0 -172 50 -97 180 -127 281 -65 96 60 113 204 33 288 -37 40 -113 66
-162 56z m82 -44 c40 -37 73 -116 73 -177 0 -89 -41 -142 -111 -142 -79 0
-147 83 -156 190 -7 69 7 111 46 141 35 28 111 22 148 -12z"/>
<path d="M6124 2058 c-24 -5 -56 -22 -76 -41 -19 -18 -25 -25 -14 -16 37 29
64 39 106 39 32 0 48 -6 70 -29 l29 -29 0 -136 c0 -75 3 -141 6 -146 3 -6 25
-10 47 -10 39 0 40 1 25 18 -14 15 -17 41 -17 136 0 128 -12 174 -52 199 -32
20 -76 26 -124 15z"/>
<path d="M4172 2045 c-31 -13 -32 -16 -18 -31 24 -23 23 -279 -1 -306 -15 -17
-13 -18 47 -18 60 0 62 1 47 18 -14 15 -17 42 -17 149 0 131 0 131 28 153 l27
22 -27 -16 -28 -16 0 30 c0 34 -9 36 -58 15z"/>
<path d="M2009 2027 c-87 -57 -106 -210 -36 -285 70 -76 185 -73 270 6 15 14
27 30 27 36 0 5 -10 0 -22 -12 -76 -70 -204 -48 -248 43 -33 69 -22 160 26
209 33 32 28 33 -17 3z"/>
<path d="M3429 2027 c-87 -57 -106 -210 -36 -285 70 -76 185 -73 270 6 15 14
27 30 27 36 0 5 -10 0 -22 -12 -76 -70 -204 -48 -248 43 -33 69 -22 160 26
209 33 32 28 33 -17 3z"/>
<path d="M3820 2024 c-46 -39 -70 -94 -70 -159 0 -31 7 -69 15 -84 35 -69 123
-110 193 -92 46 13 108 54 123 83 10 18 6 17 -26 -7 -48 -37 -125 -45 -175
-17 -93 51 -109 220 -27 284 12 10 17 18 10 18 -6 0 -26 -12 -43 -26z"/>
<path d="M6208 1923 c7 -3 16 -2 19 1 4 3 -2 6 -13 5 -11 0 -14 -3 -6 -6z"/>
<path d="M6145 1910 c-13 -5 -14 -9 -5 -9 8 0 24 4 35 9 13 5 14 9 5 9 -8 0
-24 -4 -35 -9z"/>
<path d="M6064 1881 c-81 -37 -106 -104 -59 -159 42 -50 111 -48 168 5 30 30
62 82 54 90 -3 2 -8 -5 -12 -16 -3 -11 -20 -32 -36 -46 -37 -30 -98 -34 -121
-7 -40 45 -28 96 30 130 46 26 31 28 -24 3z"/>
</g>
</svg>
